<svg xmlns="http://www.w3.org/2000/svg" xmlns:xlink="http://www.w3.org/1999/xlink" version="1.1" class="marks" width="1156" height="680" viewBox="0 0 1156 680"><rect width="1156" height="680" fill="white"/><g fill="none" stroke-miterlimit="10" transform="translate(58,43)"><g class="mark-group role-frame root" role="graphics-object" aria-roledescription="group mark container"><g transform="translate(0,0)"><path class="background" aria-hidden="true" d="M0.5,0.5h1000v600h-1000Z" stroke="#ddd"/><g><g class="mark-group role-axis" aria-hidden="true"><g transform="translate(0.5,600.5)"><path class="background" aria-hidden="true" d="M0,0h0v0h0Z" pointer-events="none"/><g><g class="mark-rule role-axis-grid" pointer-events="none"><line transform="translate(25,-600)" x2="0" y2="600" stroke="#ddd" stroke-width="1" opacity="1"/><line transform="translate(84,-600)" x2="0" y2="600" stroke="#ddd" stroke-width="1" opacity="1"/><line transform="translate(143,-600)" x2="0" y2="600" stroke="#ddd" stroke-width="1" opacity="1"/><line transform="translate(202,-600)" x2="0" y2="600" stroke="#ddd" stroke-width="1" opacity="1"/><line transform="translate(261,-600)" x2="0" y2="600" stroke="#ddd" stroke-width="1" opacity="1"/><line transform="translate(319,-600)" x2="0" y2="600" stroke="#ddd" stroke-width="1" opacity="1"/><line transform="translate(378,-600)" x2="0" y2="600" stroke="#ddd" stroke-width="1" opacity="1"/><line transform="translate(437,-600)" x2="0" y2="600" stroke="#ddd" stroke-width="1" opacity="1"/><line transform="translate(496,-600)" x2="0" y2="600" stroke="#ddd" stroke-width="1" opacity="1"/><line transform="translate(555,-600)" x2="0" y2="600" stroke="#ddd" stroke-width="1" opacity="1"/><line transform="translate(614,-600)" x2="0" y2="600" stroke="#ddd" stroke-width="1" opacity="1"/><line transform="translate(673,-600)" x2="0" y2="600" stroke="#ddd" stroke-width="1" opacity="1"/><line transform="translate(731,-600)" x2="0" y2="600" stroke="#ddd" stroke-width="1" opacity="1"/><line transform="translate(790,-600)" x2="0" y2="600" stroke="#ddd" stroke-width="1" opacity="1"/><line transform="translate(849,-600)" x2="0" y2="600" stroke="#ddd" stroke-width="1" opacity="1"/><line transform="translate(908,-600)" x2="0" y2="600" stroke="#ddd" stroke-width="1" opacity="1"/><line transform="translate(966,-600)" x2="0" y2="600" stroke="#ddd" stroke-width="1" opacity="1"/></g></g><path class="foreground" aria-hidden="true" d="" pointer-events="none" display="none"/></g></g><g class="mark-group role-axis" aria-hidden="true"><g transform="translate(0.5,0.5)"><path class="background" aria-hidden="true" d="M0,0h0v0h0Z" pointer-events="none"/><g><g class="mark-rule role-axis-grid" pointer-events="none"><line transform="translate(0,600)" x2="1000" y2="0" stroke="#ddd" stroke-width="1" opacity="1"/><line transform="translate(0,545)" x2="1000" y2="0" stroke="#ddd" stroke-width="1" opacity="1"/><line transform="translate(0,491)" x2="1000" y2="0" stroke="#ddd" stroke-width="1" opacity="1"/><line transform="translate(0,436)" x2="1000" y2="0" stroke="#ddd" stroke-width="1" opacity="1"/><line transform="translate(0,382)" x2="1000" y2="0" stroke="#ddd" stroke-width="1" opacity="1"/><line transform="translate(0,327)" x2="1000" y2="0" stroke="#ddd" stroke-width="1" opacity="1"/><line transform="translate(0,273)" x2="1000" y2="0" stroke="#ddd" stroke-width="1" opacity="1"/><line transform="translate(0,218)" x2="1000" y2="0" stroke="#ddd" stroke-width="1" opacity="1"/><line transform="translate(0,164)" x2="1000" y2="0" stroke="#ddd" stroke-width="1" opacity="1"/><line transform="translate(0,109)" x2="1000" y2="0" stroke="#ddd" stroke-width="1" opacity="1"/><line transform="translate(0,55)" x2="1000" y2="0" stroke="#ddd" stroke-width="1" opacity="1"/><line transform="translate(0,0)" x2="1000" y2="0" stroke="#ddd" stroke-width="1" opacity="1"/></g></g><path class="foreground" aria-hidden="true" d="" pointer-events="none" display="none"/></g></g><g class="mark-group role-axis" role="graphics-symbol" aria-roledescription="axis" aria-label="X-axis titled 'Дата створення' for a time scale with values from Thursday, 29 December 2022, 12:00:00 AM to Thursday, 27 April 2023, 12:00:00 AM"><g transform="translate(0.5,600.5)"><path class="background" aria-hidden="true" d="M0,0h0v0h0Z" pointer-events="none"/><g><g class="mark-rule role-axis-tick" pointer-events="none"><line transform="translate(25,0)" x2="0" y2="5" stroke="#888" stroke-width="1" opacity="1"/><line transform="translate(84,0)" x2="0" y2="5" stroke="#888" stroke-width="1" opacity="1"/><line transform="translate(143,0)" x2="0" y2="5" stroke="#888" stroke-width="1" opacity="1"/><line transform="translate(202,0)" x2="0" y2="5" stroke="#888" stroke-width="1" opacity="1"/><line transform="translate(261,0)" x2="0" y2="5" stroke="#888" stroke-width="1" opacity="1"/><line transform="translate(319,0)" x2="0" y2="5" stroke="#888" stroke-width="1" opacity="1"/><line transform="translate(378,0)" x2="0" y2="5" stroke="#888" stroke-width="1" opacity="1"/><line transform="translate(437,0)" x2="0" y2="5" stroke="#888" stroke-width="1" opacity="1"/><line transform="translate(496,0)" x2="0" y2="5" stroke="#888" stroke-width="1" opacity="1"/><line transform="translate(555,0)" x2="0" y2="5" stroke="#888" stroke-width="1" opacity="1"/><line transform="translate(614,0)" x2="0" y2="5" stroke="#888" stroke-width="1" opacity="1"/><line transform="translate(673,0)" x2="0" y2="5" stroke="#888" stroke-width="1" opacity="1"/><line transform="translate(731,0)" x2="0" y2="5" stroke="#888" stroke-width="1" opacity="1"/><line transform="translate(790,0)" x2="0" y2="5" stroke="#888" stroke-width="1" opacity="1"/><line transform="translate(849,0)" x2="0" y2="5" stroke="#888" stroke-width="1" opacity="1"/><line transform="translate(908,0)" x2="0" y2="5" stroke="#888" stroke-width="1" opacity="1"/><line transform="translate(966,0)" x2="0" y2="5" stroke="#888" stroke-width="1" opacity="1"/></g><g class="mark-text role-axis-label" pointer-events="none"><text text-anchor="middle" transform="translate(25.21891418563923,15)" font-family="sans-serif" font-size="10px" fill="#000" opacity="1">2023</text><text text-anchor="middle" transform="translate(84.0630472854641,15)" font-family="sans-serif" font-size="10px" fill="#000" opacity="1">Jan 08</text><text text-anchor="middle" transform="translate(142.90718038528897,15)" font-family="sans-serif" font-size="10px" fill="#000" opacity="1">Jan 15</text><text text-anchor="middle" transform="translate(201.75131348511383,15)" font-family="sans-serif" font-size="10px" fill="#000" opacity="1">Jan 22</text><text text-anchor="middle" transform="translate(260.5954465849387,15)" font-family="sans-serif" font-size="10px" fill="#000" opacity="1">Jan 29</text><text text-anchor="middle" transform="translate(319.43957968476354,15)" font-family="sans-serif" font-size="10px" fill="#000" opacity="1">Feb 05</text><text text-anchor="middle" transform="translate(378.28371278458843,15)" font-family="sans-serif" font-size="10px" fill="#000" opacity="1">Feb 12</text><text text-anchor="middle" transform="translate(437.1278458844133,15)" font-family="sans-serif" font-size="10px" fill="#000" opacity="1">Feb 19</text><text text-anchor="middle" transform="translate(495.97197898423815,15)" font-family="sans-serif" font-size="10px" fill="#000" opacity="1">Feb 26</text><text text-anchor="middle" transform="translate(554.816112084063,15)" font-family="sans-serif" font-size="10px" fill="#000" opacity="1">Mar 05</text><text text-anchor="middle" transform="translate(613.6602451838879,15)" font-family="sans-serif" font-size="10px" fill="#000" opacity="1">Mar 12</text><text text-anchor="middle" transform="translate(672.5043782837128,15)" font-family="sans-serif" font-size="10px" fill="#000" opacity="1">Mar 19</text><text text-anchor="middle" transform="translate(731.3485113835376,15)" font-family="sans-serif" font-size="10px" fill="#000" opacity="1">Mar 26</text><text text-anchor="middle" transform="translate(789.8423817863398,15)" font-family="sans-serif" font-size="10px" fill="#000" opacity="1">Apr 02</text><text text-anchor="middle" transform="translate(848.6865148861647,15)" font-family="sans-serif" font-size="10px" fill="#000" opacity="1">Apr 09</text><text text-anchor="middle" transform="translate(907.5306479859895,15)" font-family="sans-serif" font-size="10px" fill="#000" opacity="1">Apr 16</text><text text-anchor="middle" transform="translate(966.3747810858143,15)" font-family="sans-serif" font-size="10px" fill="#000" opacity="1">Apr 23</text></g><g class="mark-rule role-axis-domain" pointer-events="none"><line transform="translate(0,0)" x2="1000" y2="0" stroke="#888" stroke-width="1" opacity="1"/></g><g class="mark-text role-axis-title" pointer-events="none"><text text-anchor="middle" transform="translate(500,30)" font-family="sans-serif" font-size="11px" font-weight="bold" fill="#000" opacity="1">Дата створення</text></g></g><path class="foreground" aria-hidden="true" d="" pointer-events="none" display="none"/></g></g><g class="mark-group role-axis" role="graphics-symbol" aria-roledescription="axis" aria-label="Y-axis titled 'Кількість переглядів' for a linear scale with values from 0 to 55,000"><g transform="translate(0.5,0.5)"><path class="background" aria-hidden="true" d="M0,0h0v0h0Z" pointer-events="none"/><g><g class="mark-rule role-axis-tick" pointer-events="none"><line transform="translate(0,600)" x2="-5" y2="0" stroke="#888" stroke-width="1" opacity="1"/><line transform="translate(0,545)" x2="-5" y2="0" stroke="#888" stroke-width="1" opacity="1"/><line transform="translate(0,491)" x2="-5" y2="0" stroke="#888" stroke-width="1" opacity="1"/><line transform="translate(0,436)" x2="-5" y2="0" stroke="#888" stroke-width="1" opacity="1"/><line transform="translate(0,382)" x2="-5" y2="0" stroke="#888" stroke-width="1" opacity="1"/><line transform="translate(0,327)" x2="-5" y2="0" stroke="#888" stroke-width="1" opacity="1"/><line transform="translate(0,273)" x2="-5" y2="0" stroke="#888" stroke-width="1" opacity="1"/><line transform="translate(0,218)" x2="-5" y2="0" stroke="#888" stroke-width="1" opacity="1"/><line transform="translate(0,164)" x2="-5" y2="0" stroke="#888" stroke-width="1" opacity="1"/><line transform="translate(0,109)" x2="-5" y2="0" stroke="#888" stroke-width="1" opacity="1"/><line transform="translate(0,55)" x2="-5" y2="0" stroke="#888" stroke-width="1" opacity="1"/><line transform="translate(0,0)" x2="-5" y2="0" stroke="#888" stroke-width="1" opacity="1"/></g><g class="mark-text role-axis-label" pointer-events="none"><text text-anchor="end" transform="translate(-7,603)" font-family="sans-serif" font-size="10px" fill="#000" opacity="1">0</text><text text-anchor="end" transform="translate(-7,548.4545454545454)" font-family="sans-serif" font-size="10px" fill="#000" opacity="1">5,000</text><text text-anchor="end" transform="translate(-7,493.9090909090909)" font-family="sans-serif" font-size="10px" fill="#000" opacity="1">10,000</text><text text-anchor="end" transform="translate(-7,439.3636363636364)" font-family="sans-serif" font-size="10px" fill="#000" opacity="1">15,000</text><text text-anchor="end" transform="translate(-7,384.8181818181818)" font-family="sans-serif" font-size="10px" fill="#000" opacity="1">20,000</text><text text-anchor="end" transform="translate(-7,330.27272727272725)" font-family="sans-serif" font-size="10px" fill="#000" opacity="1">25,000</text><text text-anchor="end" transform="translate(-7,275.72727272727275)" font-family="sans-serif" font-size="10px" fill="#000" opacity="1">30,000</text><text text-anchor="end" transform="translate(-7,221.1818181818182)" font-family="sans-serif" font-size="10px" fill="#000" opacity="1">35,000</text><text text-anchor="end" transform="translate(-7,166.63636363636363)" font-family="sans-serif" font-size="10px" fill="#000" opacity="1">40,000</text><text text-anchor="end" transform="translate(-7,112.09090909090907)" font-family="sans-serif" font-size="10px" fill="#000" opacity="1">45,000</text><text text-anchor="end" transform="translate(-7,57.54545454545456)" font-family="sans-serif" font-size="10px" fill="#000" opacity="1">50,000</text><text text-anchor="end" transform="translate(-7,3)" font-family="sans-serif" font-size="10px" fill="#000" opacity="1">55,000</text></g><g class="mark-rule role-axis-domain" pointer-events="none"><line transform="translate(0,600)" x2="0" y2="-600" stroke="#888" stroke-width="1" opacity="1"/></g><g class="mark-text role-axis-title" pointer-events="none"><text text-anchor="middle" transform="translate(-41.5859375,300) rotate(-90) translate(0,-2)" font-family="sans-serif" font-size="11px" font-weight="bold" fill="#000" opacity="1">Кількість переглядів</text></g></g><path class="foreground" aria-hidden="true" d="" pointer-events="none" display="none"/></g></g><g class="mark-group role-scope pathgroup" role="graphics-object" aria-roledescription="group mark container"><g transform="translate(0,0)"><path class="background" aria-hidden="true" d="M0,0h1000v600h-1000Z"/><g><g class="mark-line role-mark marks" clip-path="url(#clip1)" role="graphics-object" aria-roledescription="line mark container"><path aria-label="Дата створення: Dec 29, 2022; Кількість переглядів: 4660; Мова каналу:: Італійська; language: Італійська" role="graphics-symbol" aria-roledescription="line mark" d="M0,549.164C19.615,526.724,39.229,504.284,58.844,500.684C78.459,497.084,98.074,497.313,117.688,495.284C137.303,493.255,156.918,488.676,176.532,488.509C196.147,488.342,215.762,488.425,235.377,488.258C254.991,488.091,274.606,478.724,294.221,478.724C313.835,478.724,333.45,482.16,353.065,482.16C372.68,482.16,392.294,460.16,411.909,459.6C431.524,459.04,451.138,458.76,470.753,458.76C490.368,458.76,509.982,471.022,529.597,471.022C549.212,471.022,568.827,469.227,588.441,466.178C608.056,463.129,627.671,452.727,647.285,452.727C666.9,452.727,686.515,468.504,706.13,469.909C725.628,471.305,745.126,470.607,764.623,472.004C784.238,473.408,803.853,482.604,823.468,485.149C843.082,487.695,862.697,486.422,882.312,488.967C901.926,491.513,921.541,497.458,941.156,514.44C960.771,531.422,980.385,565.427,1000,599.433" stroke="#4c78a8" stroke-width="7" opacity="0.9"/></g></g><path class="foreground" aria-hidden="true" d="" display="none"/></g><g transform="translate(0,0)"><path class="background" aria-hidden="true" d="M0,0h1000v600h-1000Z"/><g><g class="mark-line role-mark marks" clip-path="url(#clip2)" role="graphics-object" aria-roledescription="line mark container"><path aria-label="Дата створення: Dec 29, 2022; Кількість переглядів: 23781; Мова каналу:: Англійська; language: Англійська" role="graphics-symbol" aria-roledescription="line mark" d="M0,340.571C19.615,206.109,39.229,71.647,58.844,70.331C78.459,69.015,98.074,68.356,117.688,68.356C137.303,68.356,156.918,72.469,176.532,72.469C196.147,72.469,215.762,46.267,235.377,38.542C254.991,30.816,274.606,26.116,294.221,26.116C313.835,26.116,333.45,59.836,353.065,59.836C372.68,59.836,392.294,46.505,411.909,46.505C431.524,46.505,451.138,46.698,470.753,47.084C490.368,47.469,509.982,53.902,529.597,53.902C549.212,53.902,568.827,38.496,588.441,32.716C608.056,26.936,627.671,22.847,647.285,19.222C666.9,15.596,686.515,10.964,706.13,10.964C725.628,10.964,745.126,12.64,764.623,15.993C784.238,19.366,803.853,34.507,823.468,40.647C843.082,46.787,862.697,44.709,882.312,52.833C901.926,60.956,921.541,66.905,941.156,95.051C960.771,123.196,980.385,354.3,1000,585.404" stroke="#9ecae9" stroke-width="7" opacity="0.9"/></g></g><path class="foreground" aria-hidden="true" d="" display="none"/></g></g><g class="mark-group role-legend" role="graphics-symbol" aria-roledescription="legend" aria-label="Symbol legend titled 'Мова каналу:' for stroke color with 2 values: Італійська, Англійська"><g transform="translate(1018,0)"><path class="background" aria-hidden="true" d="M0,0h75v40h-75Z" pointer-events="none"/><g><g class="mark-group role-legend-entry"><g transform="translate(0,16)"><path class="background" aria-hidden="true" d="M0,0h0v0h0Z" pointer-events="none"/><g><g class="mark-group role-scope" role="graphics-object" aria-roledescription="group mark container"><g transform="translate(0,0)"><path class="background" aria-hidden="true" d="M0,0h67.2060546875v11h-67.2060546875Z" pointer-events="none" opacity="1"/><g><g class="mark-symbol role-legend-symbol" pointer-events="none"><path transform="translate(6,6)" d="M-5,0L5,0" stroke="#4c78a8" stroke-width="1.5" opacity="0.9"/></g><g class="mark-text role-legend-label" pointer-events="none"><text text-anchor="start" transform="translate(16,9)" font-family="sans-serif" font-size="10px" fill="#000" opacity="1">Італійська</text></g></g><path class="foreground" aria-hidden="true" d="" pointer-events="none" display="none"/></g><g transform="translate(0,13)"><path class="background" aria-hidden="true" d="M0,0h67.2060546875v11h-67.2060546875Z" pointer-events="none" opacity="1"/><g><g class="mark-symbol role-legend-symbol" pointer-events="none"><path transform="translate(6,6)" d="M-5,0L5,0" stroke="#9ecae9" stroke-width="1.5" opacity="0.9"/></g><g class="mark-text role-legend-label" pointer-events="none"><text text-anchor="start" transform="translate(16,9)" font-family="sans-serif" font-size="10px" fill="#000" opacity="1">Англійська</text></g></g><path class="foreground" aria-hidden="true" d="" pointer-events="none" display="none"/></g></g></g><path class="foreground" aria-hidden="true" d="" pointer-events="none" display="none"/></g></g><g class="mark-text role-legend-title" pointer-events="none"><text text-anchor="start" transform="translate(0,9)" font-family="sans-serif" font-size="11px" font-weight="bold" fill="#000" opacity="1">Мова каналу:</text></g></g><path class="foreground" aria-hidden="true" d="" pointer-events="none" display="none"/></g></g><g class="mark-group role-title"><g transform="translate(500,-38)"><path class="background" aria-hidden="true" d="M0,0h0v0h0Z" pointer-events="none"/><g><g class="mark-text role-title-text" role="graphics-symbol" aria-roledescription="title" aria-label="Title text 'Середня кількість переглядів телеграм-каналів за англійською й італійськомю мовами (січень–квітень 2023 року)'" pointer-events="none"><text text-anchor="middle" transform="translate(0,10)" font-family="sans-serif" font-size="13px" font-weight="bold" fill="#000" opacity="1">Середня кількість переглядів телеграм-каналів за англійською й італійськомю мовами (січень–квітень 2023 року)</text></g></g><path class="foreground" aria-hidden="true" d="" pointer-events="none" display="none"/></g></g></g><path class="foreground" aria-hidden="true" d="" display="none"/></g></g></g><defs><clipPath id="clip1"><rect x="0" y="0" width="1000" height="600"/></clipPath><clipPath id="clip2"><rect x="0" y="0" width="1000" height="600"/></clipPath></defs></svg>